<svg xmlns="http://www.w3.org/2000/svg" width="500" height="646"><g fill="#464646"><path d="M171.63 401.538l-3.868-1.145-1.36-2.594-1.358-2.593 2.478-.622 2.478-.622v-4.844l.866-.535.867-.536 1.788 1.977L175.31 392H185v-3.786l1.604-.615 1.604-.616-.573-1.491-.572-1.492h2.857l1.198-4 1.199-4h.81c.445 0 1.424 1.173 2.175 2.608l1.367 2.607 3.167-4.306 3.167-4.306-.955-.955-.954-.954 1.038-1.94 1.038-1.94-.632-2.657a103.361 103.361 0 00-1.174-4.472l-.54-1.816 4.185 2.135c2.302 1.175 4.403 1.917 4.67 1.65.267-.267.177-2.957-.2-5.977l-.686-5.492-4.186-1.054-4.186-1.054-2.114.553-2.114.553-.664-2.092-.664-2.091h-5.996l-1.926-1.03-1.925-1.03-2.759 1.437c-1.517.79-4.625 3.167-6.905 5.28l-4.145 3.843-2.355.11c-1.295.061-3.743.44-5.44.843l-3.087.732-1.763-1.764-1.763-1.763 2.153-1.623 2.153-1.624-1.09-2.868-1.09-2.868.632-4.22.633-4.22 2.908-2.15 2.907-2.15-2.024-3.968L161.96 322h.94c.515 0 1.891-1.543 3.057-3.428l2.118-3.428-.635-2.531c-.35-1.392-1.237-3.03-1.973-3.641l-1.338-1.11-2.079 1.112-2.079 1.112-.626-1.632-.627-1.633 2.892-2.847 2.891-2.848 5.836-.45 5.837-.449 1.007-1.007 1.006-1.006-1.663-2.538-1.663-2.538 2.521-1.652 2.521-1.652 2.049.65 2.049.65v2.916l2.584.982 2.584.982.916-.566c.504-.311.916-1.199.916-1.972v-1.406l1.99-1.064 1.99-1.065 1.718-3.22c.945-1.772 1.737-3.55 1.76-3.952.023-.402 1.074-1.453 2.335-2.337l2.293-1.606 1.457 1.21 1.457 1.209v-1.49l1.524 1.265 1.524 1.265.636-.636.637-.636 1.446 2.065 1.447 2.065-2.116 2.253c-1.164 1.239-1.897 2.471-1.63 2.739.268.268.67 1.584.892 2.926l.405 2.439-1.981 3.278-1.982 3.278 1.179 1.421c.648.781 2.76 1.942 4.691 2.58l3.512 1.159 1.066-1.066 1.065-1.065-1.134-1.366-1.133-1.367 1.176-1.176C217.87 300.53 219.12 300 220 300c.88 0 2.1-.5 2.713-1.113l1.113-1.113 1.113.689c.613.378 1.049 1.216.969 1.862-.08.646-.092 1.985-.026 2.976l.118 1.801 3.75 3.507c2.063 1.929 5.423 4.383 7.467 5.453l3.717 1.945-.527 1.375-.528 1.376-1.665-.13-1.666-.128-.024 3.335-.024 3.335 1.25 1.037c.688.571 1.25 1.433 1.25 1.915V329h-7.882l-.645 1.044-.645 1.044 1.208 1.456 1.209 1.456H226.214l-.563 1.468-.564 1.468 1.207.757c.663.416 1.954.634 2.867.484l1.662-.273.61.988.611.988-1.594 1.31c-.876.72-2.5 2.137-3.608 3.147l-2.015 1.836.568 2.265.569 2.265-.732.732c-.403.402-.748 1.032-.767 1.398-.02.367-.602 1.686-1.293 2.932l-1.258 2.265 1.688.647 1.687.648 1.216-1.663L227.72 356h3.034l1.171 1.411 1.171 1.41-1.143.707-1.142.706.499 2.61.498 2.61-1.908 3.74-1.907 3.74-2.01 1.074-2.008 1.076-3.738-.292-3.738-.292-.297 2.5c-.163 1.375-.766 3.705-1.341 5.178l-1.045 2.678-1.409.54-1.408.541v2.948l-4.25.308-4.25.307-.323 3.377-.323 3.377 1.073 1.073c.59.59 1.073 1.658 1.073 2.373v1.3h-4.786l-.549-1.43-.549-1.43-4.597-.69-4.598-.689-1.861 1.685-1.861 1.684-.576-.93-.575-.932-2.774.487-2.774.487-1.5 1.72-1.5 1.721-3.87-1.145zm77.977-49.12c-.334-.87-.607-2.879-.607-4.465v-2.883l2.067-1.106 2.067-1.106 2.433 1.594 2.433 1.594v1.355c0 .745.675 1.914 1.5 2.599l1.5 1.245V354h-10.786l-.607-1.582zm-68.033-120.91l-2.573-3.373-2.055-.652-2.056-.653.413-1.165.412-1.165 1.74.155 1.738.155 4.024-3.905c2.213-2.148 4.404-3.905 4.869-3.905.464 0 2.41-1.375 4.324-3.055l3.48-3.055 2.055 2.055c1.13 1.13 2.055 2.47 2.055 2.976v.92l-2.999.659-2.999.658-1.451 2.073-1.452 2.072 1.43 2.042 1.43 2.042-1.634 1.807L190.69 230h-2.753l-.575-1.5-.576-1.5h-2.572l-.668 1.741-.668 1.741 2.046 1.658 2.047 1.657-1.412.542-1.412.542-2.573-3.373zM103.675 604.342l-.658-.658 1.1-1.325 1.1-1.326-2.56-.973-2.561-.974-1.462-2.827-1.462-2.827.4-5.755.4-5.755 1.049-1.96c.577-1.08.825-1.962.55-1.962-.275 0 .396-2.09 1.49-4.643l1.99-4.643-1.525-1.686-1.526-1.685.04-3.922.04-3.921 2.96-5.5c1.628-3.025 2.96-6.232 2.96-7.128v-1.627l1.5-1.245 1.5-1.245V535.472l2-5.472c1.1-3.01 2-6.52 2-7.802 0-3.215 1.6-5.908 5.597-9.417l3.403-2.988v-2.63l3.5-2.163 3.5-2.163v-1.468c0-.808.727-2.908 1.615-4.669l1.615-3.2 2.84-2.287 2.84-2.287 3.045-5.993L144 476.94v-1.983c0-2.044 1.485-5.187 3.848-8.144l1.348-1.687-.684-1.107-.684-1.107 1.586-2.42L151 458.07V454.1l-1.368-.8-1.368-.799-.704-5.75-.704-5.75h.537c.296 0 2.133 1.401 4.083 3.113l3.546 3.114 1.48-1.228 1.479-1.228-.565-2.25-.565-2.25 1.508-.578 1.507-.579.624 2.84.623 2.839 1.906 1.725 1.907 1.725 1.472-.566 1.473-.565.41 1.194c.226.657.043 2.496-.406 4.086l-.817 2.893.54.875.542.875 2.68-2.111c1.474-1.162 2.74-2.632 2.815-3.268.074-.636.186-1.808.25-2.606l.115-1.45 1.2 1.2c1.806 1.806 2.31 1.54 5.126-2.717l2.593-3.917 2.073.542 2.074.542 1.967-1.78 1.967-1.78V437l1.75-.152a303.04 303.04 0 013.137-.256l1.388-.103.795-2.15.796-2.15-2.04-1.845-2.04-1.844 3.857-.641 3.857-.642 1.69.894 1.689.894.62-1.002c.34-.552 1.256-1.003 2.035-1.003h1.416l-.576 2.879-.575 2.878 1.144.708 1.145.707 1.206-.964c.663-.53 2.13-1.246 3.261-1.591l2.055-.628 1.698 3.847 1.697 3.847-1.519 3.044-1.518 3.044-2.938 1.216-2.937 1.217-1.68 5.148c-.923 2.831-1.868 5.481-2.1 5.89l-.42.74-3.569-1.49c-4.389-1.835-3.99-1.879-4.614.508l-.523 2h-3.25l-.552-1.44-.553-1.44-2.416 1.1-2.416 1.101-.03 4.09-.03 4.089-1.135-2c-1.13-1.994-2.768-3.456-3.903-3.485-.33-.008-1.422 1.812-2.43 4.046l-1.83 4.06-2.821.565-2.821.564v4.82l-1.615 2.465L171.77 481h-6.574l-1.113 3.19-1.112 3.192.933 3.059c.513 1.682 1.129 5.422 1.368 8.309l.434 5.25h-.665c-.366 0-1.65-1.332-2.853-2.96L160 498.081v-4.391l-1.937 1.753-1.937 1.753-1.07-.661-1.07-.661-2.897 2.063L148.19 500H143V506.983l2 1.25 2 1.248v5.383l-3.012 2.145-3.012 2.145-2.988-.657-2.988-.656v10.1l3.006 2.222 3.006 2.222.989 3.558c.543 1.956.99 4.54.993 5.74l.006 2.182-2 .635-2 .635V551h4l.016.75c.008.412.4 1.359.873 2.103l.857 1.353 2.08-1.113 2.08-1.113.642 3.423.642 3.423-.662 2.087-.662 2.087H152.064l.645 1.75c.355.962 1.062 2.03 1.572 2.373l.926.623-1.128 2.106-1.127 2.107.633 2.52c.76 3.03 1.022 3.058 5.149.542l3.233-1.971 1.426.547 1.427.548.657-2.072.658-2.071 2.06 1.102 2.06 1.102.857-1.353c1.14-1.798 1.101-2.603-.16-3.383l-1.049-.648 1.168-1.408 1.169-1.407-1.165-4.625c-.64-2.544-.94-4.85-.666-5.124.275-.274 2.534-.194 5.022.18l4.523.678.663 1.073.664 1.074-1.74.974-1.74.974 3.65 3.01 3.651 3.009-1.55 1.714c-.854.942-1.552 2.18-1.552 2.75 0 .57-.883 2.159-1.963 3.531l-1.962 2.495 1.248 1.706 1.247 1.707 1.87-2.067 1.87-2.066h2.904l-.514-1.34-.515-1.341.842-1.363.843-1.364 2.372 1.27 2.371 1.269 2.423 4.435 2.422 4.434H199.223l-.694 3.695c-.38 2.032-1.804 5.888-3.162 8.568l-2.47 4.873-3.198-.673c-1.76-.37-4.722-1.382-6.584-2.247l-3.385-1.572-5.563 1.167-5.563 1.166-.791-1.238-.792-1.239.458-1.25c.252-.688.284-1.25.071-1.25-.212 0-1.176-.303-2.142-.674l-1.755-.673.567 1.478.567 1.479-3.393.096-3.394.096V590.865l1.994.633 1.993.633-.687-1.816c-.379-.998-1.252-2.386-1.94-3.083l-1.253-1.268-1.303.268-1.304.268.25-1.25.25-1.25h-3v2H147.813l-.523 2c-.288 1.1-.868 2-1.29 2-.422 0-1.004.906-1.293 2.013l-.527 2.013 1.988 1.064 1.988 1.064 1.672-.726c.92-.399 2.572-.759 3.672-.799l2-.073-.1 1.222c-.055.672-.168 2.122-.25 3.222l-.15 2h-3v-3h-.918c-.505 0-1.642.278-2.526.617l-1.607.617 1.211 1.459 1.211 1.46-1.427.882-1.427.882-2.509-.521c-1.38-.287-3.52-.727-4.758-.978l-2.25-.456V599h-1.096c-.602 0-2.483.988-4.18 2.196l-3.083 2.196-5.387.214-5.386.214-.541-1.41-.541-1.41-1.143.022c-.629.012-2.268.902-3.643 1.978l-2.5 1.956-2.583.022c-1.421.012-2.88-.274-3.242-.636zM466.05 311.617l-1.919-4.476-1.928-1.032-1.929-1.033-1.258-3.038-1.259-3.038H456V294.887l-4.058 2.42-4.058 2.42-4.184-1.442c-2.301-.793-4.638-1.803-5.192-2.245l-1.008-.803-10 .157-10 .158-1.676-.97-1.675-.97 1.362-1.056 1.363-1.056.676-3.758.676-3.759-3.363-.048c-1.85-.026-5.894-.018-8.987.019l-5.623.066-2.544-3.335-2.544-3.335.748-1.209.747-1.209 1.458.56 1.459.56 2.808-2.932 2.81-2.932-.633-1.992-.632-1.992-5.278-2.142-5.278-2.143-1.527.586-1.527.586-1.282-1.545-1.283-1.546h-5.51l-1.109-1.336c-.61-.734-3.252-2.365-5.872-3.624-2.62-1.258-7.375-3.562-10.567-5.119l-5.802-2.83-2.457 1.12-2.458 1.119-2.304-2.165L349.37 245h-3.965l-3.82-3.912-3.82-3.912 1.5-3.006 1.499-3.005-.92-.92-.92-.92 1.22-2.912c.67-1.602 1.296-3.6 1.39-4.438.093-.838.485-3.622.87-6.187l.699-4.662-2.302-1.304c-1.266-.717-3.202-1.308-4.302-1.313l-2-.009.313-3 .313-3 1.356-1.383 1.355-1.383-2.813-2.367c-1.547-1.302-3.285-2.367-3.862-2.367s-1.75-1-2.605-2.223L327 190.555v-9.295l-4.427-1.24-4.426-1.239.476-1.24.476-1.241-8.3-4.15L302.5 168h-4.25c-2.337 0-4.25-.188-4.25-.418 0-.23-.29-1.175-.645-2.1l-.645-1.68 2.006 1.253 2.006 1.253 2.321-1.626 2.32-1.625 1.427 1.184 2.658.445.128-1.121 1.36-1.86-.566-.915-.566-.916 1.753-1.937L309.31 156h1.645c.905 0 2.112.467 2.682 1.037l1.037 1.037 4.913-3.377 4.913-3.376 1.217-2.41 1.217-2.411 4.263-.071 4.263-.072 2.52 1.315c1.386.724 3.004 1.319 3.596 1.322.591.003 2.132 1.131 3.424 2.506l2.349 2.5h8.679l2.236 1.25c1.23.688 2.572 1.77 2.984 2.407l.747 1.157 1.89-.494 1.89-.494.671 1.087.672 1.087h6.508l2.88-3.006 2.88-3.006 1.934.614 1.933.613 2.306-2.857 2.305-2.858 1.496 2 1.496 2 3.072-3.43c1.69-1.887 3.072-3.955 3.072-4.596 0-.642.727-2.625 1.616-4.407l1.617-3.24 2.133.708c1.174.39 4.071.926 6.44 1.192l4.304.483 1.741-1.575 1.74-1.576 3.775.613 3.774.612 1.514 2.311 1.515 2.311-1.795 3.037-1.794 3.037 1.21 1.21 1.21 1.21v5.218l1.347 1.842 1.348 1.843.711-1.152.712-1.151H440v4.7l-2.969 4.098-2.968 4.098-2.032 1.087L430 173.07v7.638l5.493 3.486 5.493 3.487 2.998 4.138 2.998 4.138 2.38.598 2.382.597 1.21 2.26 1.209 2.26-.289 1.414c-.159.778.04 2.66.442 4.18l.73 2.768-2.023 2.171c-2.473 2.656-2.51 3.762-.273 8.126l1.75 3.413 2.75 1.041 2.75 1.041v10.244l1.586 2.421 1.586 2.421-.573.927c-.315.51-.817 2.668-1.115 4.794-.298 2.127-.788 4.992-1.087 6.367l-.545 2.5-2.076 2.224-2.076 2.224 1.56.598 1.56.599.664 2.677.664 2.678 1.839 2 1.838 2 .231 3 .231 3-.806 1.895-.806 1.894 1.854 1.356c1.02.745 2.555 1.357 3.412 1.36l1.559.005 2.678 2.245 2.678 2.245.414 4 .414 4 1.651 3.187 1.65 3.186-.497 1.314c-.274.722-.676 3.338-.893 5.813-.218 2.475-.44 4.978-.496 5.563l-.099 1.063-4.515.234-4.516.234-1.919-4.477zM289.771 218.315l-1.729-.453 2.117-2.864 2.117-2.863 2.362 1.547L297 215.23V219l-2.75-.116c-1.512-.064-3.528-.32-4.479-.57zm-53.168 48.59L234.887 264H230v2h-2.786l-.576-1.5-.575-1.5h-3.176l-2.91-3.187-2.911-3.187 1.065-1.283 1.065-1.284 3.983 2.032 3.984 2.033 2.327-1.526 2.328-1.525 1.658 2.53 1.658 2.53 1.445-1.199 1.446-1.2-.897-1.117c-.493-.614-1.191-2.494-1.55-4.178l-.654-3.06 2.038-1.845L239 245.69v-7.888l3.11-2.905 3.11-2.906-.668-3.566c-.368-1.962-.885-4.13-1.15-4.818l-.48-1.25 2.38-1.085 2.378-1.083 1.752 2.965 1.751 2.965 3.159-.682c1.737-.374 4.779-1.501 6.76-2.503l3.6-1.823 3.852 3.945c4.288 4.39 4.958 4.659 5.848 2.34l.615-1.605-3.594-4.895c-1.976-2.693-4.005-4.896-4.508-4.896H266v-3.651l2.35-2.207 2.348-2.207 2.735 1.04 2.735 1.04.847-.524.847-.524.558.903.558.903-1.489 1.236c-2.088 1.733-1.908 2.445 1.649 6.495l3.138 3.574-1.81 1.324-1.811 1.323 2.137 4.1 2.137 4.1-.968.6-.968.598.555 2.212.555 2.213-3.112 2.3-3.112 2.301 1.144 1.378 1.143 1.378-7.24-.023-7.239-.023-2.253 2.82-2.254 2.821 1.06 1.284c.584.706 1.159 2.53 1.279 4.053l.218 2.77-1.822 2.25-1.82 2.248-6.272-1.137c-3.449-.626-7.023-1.54-7.943-2.032l-1.673-.896-.647 2.576-.646 2.575 1.035 1.248 1.035 1.247-2.332 1.063-2.332 1.062-1.717-2.905zm22.92 16.786c-1.087-.655-2.485-1.827-3.106-2.605l-1.13-1.413 1.048-3.587c.576-1.972 1.597-4.418 2.269-5.434l1.222-1.848 1.666 2.544 1.667 2.544 3.42-1.631L270 270.63v-7.149l1.915-1.196 1.914-1.195 1.155 1.39 1.154 1.391 2.884.634 2.885.633-1.933 4.181c-1.063 2.3-2.404 6.075-2.98 8.39l-1.049 4.207-1.722-.655c-.948-.36-2.543-1.691-3.546-2.958L268.855 276h-3.479l-2.261 3.059-2.262 3.059 1.196 1.44 1.196 1.442-.873-.059c-.48-.032-1.762-.595-2.849-1.25zM134.635 209.491l-.579-1.508 1.004-2.641 1.004-2.642-2.655-3.83-2.655-3.832-1.585.887-1.586.888-1.12-1.533-1.121-1.533-2.105 1.126c-1.158.62-2.987 1.127-4.064 1.127h-1.959l-.64-1.67-.642-1.67 1.284-.864a60.674 60.674 0 013.034-1.865l1.75-1.001V186h-4v-2.624l3-2.218 3-2.218V170H119.809l-2.961-2.109-2.962-2.108 1.557-1.72 1.557-1.72v-4.427l1.009-1.208c4.704-5.631 8.85-11.634 9.47-13.708.41-1.375 2.077-4.862 3.706-7.75l2.962-5.25h-6.954l-.42-4.75c-.23-2.612-.771-5.537-1.203-6.5l-.784-1.75h9.316l1.519 3.635c.835 1.999 2.448 4.892 3.583 6.428l2.065 2.793-.64 1.667-.64 1.667-1.994.522c-1.097.287-1.988.806-1.98 1.155.032 1.31 1.954 3.633 3.006 3.633.601 0 1.974 1.125 3.05 2.5l1.956 2.5 1.987-2.36 1.986-2.362v-4.965l-1.857-.486-1.858-.486.647-3.164.648-3.165 1.799-.346 1.8-.347 2.16 1.966c1.189 1.08 3.174 2.487 4.411 3.125l2.25 1.16V140h-2v17.793l3.297 2.895c3.853 3.382 6.703 7.224 6.703 9.035V171h-3.232l-4.956 3.638-4.957 3.639.671 7.157.67 7.158-4.098 2.84-4.098 2.84V203.755l1.533 1.273 1.534 1.272-2.208 2.35-2.208 2.35H135.214l-.579-1.509zM140 118c0-.55.45-1 1-1s1 .45 1 1-.45 1-1 1-1-.45-1-1zm-11.5-5l-2-.86 1.5-.054c.825-.03 2.175.38 3 .914l1.5.97-1-.056c-.55-.03-1.9-.441-3-.914zM171.375 266.31l-2.126-.416-3.13-3.894c-1.72-2.142-3.606-5.15-4.19-6.687l-1.062-2.792.651-3.51.651-3.511 1.57-1.75 1.571-1.75H172.043l1.096-2.406 1.096-2.406 2.333-.446 2.332-.446.47 1.226.47 1.225 3.608.677 3.608.677-.587.95-.587.949.794 1.25.793 1.25.016 3.891.015 3.891 1.883 1.109c1.036.61 2.967 2.16 4.29 3.445l2.407 2.335-.607 1.915-.608 1.914h-10.651l-.592-1.543-.592-1.543-1.805.965c-.992.532-2.425 2.126-3.184 3.544L176.662 267l-1.581-.136c-.87-.075-2.537-.324-3.706-.553z"/><path d="M152.75 59l1.25 1.5c.685.825 1.417 1.5 1.625 1.5.208 0 .375-.675.375-1.5V59h-1.625zm126.563-6l-1.157 2.563c-1.589 3.487-1.47 4.113.844 4.718l2 .532V63.874l5-.188 4.969-.187.031-.813c.004-.44-.697-2.105-1.531-3.718l-1.5-2.938-2.938-1.5c-1.613-.834-3.548-1.531-4.312-1.531zm-113.188-1.844l-2.094.532c-1.14.298-2.295.953-2.594 1.437l-.562.875.656 1.063.656 1.062 1.657-.344 1.656-.312.313-2.157zm-17.813-13.625l-1.093 2.063-1.125 2.093 1.5 2.157c1.46 2.084 3.499 2.938 3.344 1.406-.042-.412-.651-2.33-1.344-4.25zM157.625 34c-1.347 0-3.161.26-4.031.594l-1.594.625v3.062l1.75 1.313c.963.73 2.526 1.357 3.469 1.375l1.719.031 1.093-2.094 1.125-2.062-.562-1.438-.531-1.406zm6.344-12.75l-.563.875-.531.875-3.188.156-3.187.157 2.5.406 2.5.406 2.5 5.531c1.375 3.046 2.388 5.943 2.25 6.438L166 37h2v1.094c0 .608 1.14 2.471 2.531 4.125l2.531 3-1.187 1.406-1.156 1.406 1.625-.625 1.656-.625V50.843l-1.75.47-1.75.468 1.75.094L174 52v.875c0 .483-.675 1.44-1.5 2.125l-1.5 1.25V59H175.969l1.25-2c.687-1.1 1.613-2 2.031-2h.75v5h-.844c-.466 0-1.814.847-3 1.875L174 63.75l-5.063.094c-5.304.12-6.937.65-6.937 2.218V67l1.75.031 1.75.031-2 1.126c-2.122 1.203-3.475 2.792-3.5 4.124v.813l1-.625 1-.625.563 1.406.53 1.406 4.938-.093c2.72-.055 4.965-.319 4.969-.594.004-.275 1.238-.57 2.75-.656l2.75-.156-2.531 2.156c-1.393 1.187-3.118 3.337-3.844 4.781l-1.344 2.625 1.188 2.219 1.187 2.219 2.281-.594 2.25-.563 1.157 2.531c.633 1.39 1.156 3.445 1.156 4.563v2.031l-3.125-.687-3.125-.688-.781 1.281-.781 1.25.75 1.594c.41.874 1.394 2.952 2.187 4.594l1.438 2.969 8.406 1.187 8.406 1.219 2.406 1.281 2.406 1.281 2.438 4.782 2.406 4.781h1.938l1.969 3.844 1.937 3.844 2.594 1.687 2.594 1.688 1.593-.282 1.625-.281 2.094 3.688c1.162 2.023 3.266 4.542 4.656 5.625l2.531 1.968 3.563-1.219 3.563-1.218 2.28 1.812 2.25 1.844h4.376l1-1 1-1 6.906 3.531 6.938 3.563 1.843-1.344 1.688-.438 1.969-.53 1.187 2.593 1.188 2.594 2.593-.625c1.43-.34 3.286-.98 4.125-1.406l1.531-.782 1.72.969 1.718.969 1.938 3.781 1.906 3.75 4.062 2.688c2.231 1.476 4.968 2.832 6.063 3 1.094.167 2.306.619 2.687 1 1.056 1.055 2.633.789 4.75-.813l1.938-1.469 1.406 1.156 1.406 1.188.844-1.406.875-1.375-.531-.875-.563-.875 2.281-2.406 2.282-2.438h1.625c.894 0 2.095.47 2.656 1.031l1 1 4.438-2.937 4.437-2.969 1.594-2.813 1.562-2.812 4.406-.063 4.407-.093 2.5 1.344c1.386.723 3.002 1.309 3.594 1.312.591.003 2.145 1.125 3.437 2.5l2.344 2.5h8.343l3.157 1.563c1.734.865 3.156 1.948 3.156 2.406v.844l1.875-.5 1.906-.5.656 1.093.688 1.094h6.5l2.875-3 2.875-3 1.813.563 1.78.562 2.532-2.812 2.5-2.813 1.438 1.875 1.468 1.875 2.5-2.875c1.387-1.577 2.545-3.39 2.563-4.031.017-.641 1.556-4.016 3.406-7.5l1.052-.753 3.135.753 2.532 1.156h7.25l1.687-1.531 1.656-1.5 3.813.781 3.813.813 1.968 2.625 1.969 2.593-1.875 3.25-1.875 3.25 1.25.438 1.25.437V153c0 1.56.277 3.593.625 4.5l.625 1.625 1.094-1.062 1.062-1.063h10l-1.156-1.125-1.125-1.156 1.531-2.313 1.531-2.312-.687-3.063-.656-3.031H438v-7.094L436 133l-2-3.906V123.875l-1.188-2.187-1.187-2.188-.063-4.406-.062-4.438-5-1.187c-2.75-.656-6.264-1.718-7.813-2.344-1.548-.626-4.023-1.175-5.5-1.219l-2.687-.062 1.5-.563c.825-.314 1.846-1.082 2.25-1.687l.719-1.094.031 1.281v1.282l2.937-1.532 2.97-1.531h5.968l-.094-2.937-.093-2.938-5.532-4.812c-3.053-2.646-6.805-5.34-8.343-6L410 84.093l-1.156-2.53c-1.22-2.68-2.31-3.218-3.313-1.594l-.625.969 1.625 2.468 1.625 2.469L407 88.031l-1.156 2.125.562.594.594.563 2.125-1.907 2.156-1.906-.75 2.375-.75 2.375 1.375-.469 1.344-.437.313-2.188.312-2.156H414c.474 0 1.8 1.309 2.938 2.906L419 92.812v4.126l-1.5-.563-1.5-.594V92.844l-1.25.437-1.25.406.313 3.22.343 3.218-2.594 2.406c-2.96 2.744-3.244 2.443-.968-1.031l1.594-2.469-3.032-2.562-3.062-2.563L405.5 92l-.625-1.938 1.156-2.156 1.156-2.156-2.03-2.031-2.032-2.031-4.344 1.656c-2.39.913-5.106 1.656-6.031 1.656h-1.688l-1.125-2.094c-.614-1.148-2.66-3.8-4.562-5.906l-3.469-3.844 1.063-.625 1.031-.656V75h5v-2h-3.375l2.938-3.094c1.615-1.707 3.84-3.457 4.937-3.875l2-.75 2.781.969 2.781.969L400 68.5l-1.063 1.281 1.625.594c.885.34 1.866.625 2.188.625h.594l-.625-.594-.594-.625L403 67.5l.875-2.281-1.969-2.094L399.937 61h-2.968l-1.156-2.531-1.157-2.5 2.75-2.875 2.781-2.875-1.125-2.125L397.938 46l-5.375.625-5.343.625-1.25-2.313-1.25-2.343 1.125-.375 1.156-.375V38.875l-2.25.625c-1.238.347-3.263 1.11-4.5 1.719L378 42.344V46.375l1.594-1.938 1.562-1.937-.562 1.844c-.32 1.007-.594 2.02-.594 2.25 0 .23-.645.406-1.438.406-.792 0-1.68.377-1.968.844l-.531.843 2.968.094 2.938.094L383.28 47l1.313-1.875 1.219 1.938L387.03 49h3.844l.656 2.125.688 2.125-1.375.875c-2.15 1.362-2.836 1.047-3.875-1.688L386 49.876l-1.156.719-1.188.718.656-1.656.625-1.656h-2.125l-.53 1.969-.5 1.968-1.813-.968-1.813-.969-1.625.625-1.625.625.406 1.125.407 1.125 1.562-.125 1.563-.125.469 1.813.468 1.812-1.531.594-1.531.593-.531-.53-.532-.532H378v-2H375.219l-.625 1.594-.594 1.593.563.907c.309.5 1.195.906 1.968.906h1.406L379 62l1.063 2H375.125l-.625 1.031-.625 1L373 65.5l-.844-.531L371.5 67l-.625 2-2.563-.438c-1.393-.252-3.613-1.164-4.937-2.03l-2.406-1.594-8.188-1.032-8.219-1.031-1.218 1.656-1.219 1.656.969 2.282-1.094-.656-3.594 2.843c-1.97 1.565-5.01 4.232-6.75 5.938l-3.156 3.094-9.281 3.156c-5.1 1.732-10.183 3.156-11.313 3.156h-2.062l-3 3c-1.65 1.65-3.373 3-3.844 3-.47 0-1.157.89-1.5 1.969l-.625 1.969 1.063 1.968c.58 1.085 1.062 2.445 1.062 3.031V102h-7.593l-.97-.969-.968-.969-7.063-1.187-7.062-1.219-1.656.625-1.688.656v1.25l-1-1.093-2.75-1.281-2.719-1.313-.344-1.813-.343-1.78 1.187-1.47L267.25 90h4.594l.312-.781c.184-.433 2.256-2.329 4.594-4.188l4.25-3.375v-13.25l1.188-1.187 1.187-1.188-.688-.687-.687-.688-2.375 1.281-2.375 1.282-2.156-.688-2.156-.687-3.5 3.094-3.5 3.062h-3.876l-3.28-2.781c-3.268-2.758-9.464-6.141-13.282-7.25l-2-.563-2.5 1.282L238.5 64l-.906-3.031-.906-3-2.344-.594-2.375-.594-4.75 1.563-4.719 1.562-.813-.843-.843-.813 3-1.031 3-1.063 1.031-1.906c.561-1.048 1.293-4.14 1.656-6.875l.688-4.969-2.375-1.125-2.344-1.156 1.813-.063 1.812-.062-.656-2.25c-.945-3.165-3.341-6.75-4.5-6.75H223v3h-2.688l-1.687-1.844-1.656-1.843-4-1.188L209 27.906V24.875l-2.75 1.906c-1.512 1.048-3.375 2.264-4.156 2.719l-1.438.813.656-1.657.625-1.656h-1.406c-.775 0-1.691.45-2.031 1l-.625 1H193v-2.75l-2.75-1.094c-4.51-1.786-11.308-3.023-19.031-3.468zM152.813 7.781l-.75.875c-.412.47-1.946 4.544-3.407 9.063L146 25.937l.063 4.782.062 4.781.969-2.438.969-2.437-.407-1.125-.437-1.094 1.219-2.281 1.218-2.25 1.281 1.531 1.282 1.563 2.125-1.188 2.156-1.156-2.5-.594-2.5-.625-.313-4.125-.28-4.156L153 14l2.125-1.125-1.188-1.438L152.75 10l1.875-.031 1.875-.031-1.844-1.063zM374.125 46c-1.488 0-1.86.997-2.469 6.5l-.562 5 1.187-4.5c.664-2.475 1.587-5.063 2.031-5.75l.813-1.25z"/><path d="M375.406 69c.216 0 .652.675.969 1.5l.563 1.5H375v-1.5c0-.825.19-1.5.406-1.5zM379.438 72c.242 0 .722.45 1.062 1l.625 1H379v-1c0-.55.195-1 .438-1zM35.875 253l.531 1.75.563 1.75-4.625.219c-2.535.116-4.832.456-5.125.75l-.532.531 1.188 2.656 1.219 2.656-1.188.75-1.187.72 2.156 1.156L31 267.063V270.75l1.531 1.281 1.563 1.281-.563 1.47-.562 1.468 2.906 4.625 2.906 4.625-.218 5.031-.22 5-4.156 6.438C31.89 305.505 30 309.033 30 309.813v1.406l2.469-.469 2.468-.469-.718 1.156c-.396.638-2.772 3.03-5.282 5.313l-4.562 4.156-2.188-.562-2.156-.563.219 4.094.25 4.125H26.813l-.5 1.906-.5 1.906 2.093.657 2.094.656v3.938l-1.5.562-1.5.594v1.312c0 .72-.458 1.442-1 1.625l-.969.344 1.125 3.656 1.125 3.688 1.282-.5 1.28-.5 1.313 2.344c1.29 2.272 1.482 2.867 1.719 5.656l.125 1.375 1.344-.531 1.343-.5 1.282.78 1.281.813-2.625 1.719c-3.2 2.096-3.253 2.846-.438 5.469L37.376 367H41v4H43.063l-1.126 2.094-1.124 2.125 1.093 1.094c.601.6 1.094 1.635 1.094 2.312v1.25l-2.25.313-2.25.312-.906 2.094-.938 2.094-2.75 1.03-2.781 1.063.531 1.969.5 1.969-1.625.625-1.656.656.563.906.562.938-.938 2.5-.968 2.531.593 3.563.563 3.562 2.375 2.531c1.304 1.407 2.375 3.147 2.375 3.844v1.25l2.5 2.188c1.38 1.199 3.144 2.187 3.906 2.187h1.375l.625 1.594.625 1.625 1.469-.594 1.5-.563 1.375.532 1.406.531-1.062 3.688-1.063 3.687-1.843 2.063C43.81 431.697 43 433.16 43 433.813V435h-.906c-1.41 0-2.886 4.912-3.438 11.375l-.156 1.844 3.438.281 3.437.313 2.75 3.343 2.719 3.313-.813 1.031-.812 1 .875 2.281.843 2.25 1.47.563 1.468.562.656 2.938.625 2.906H57v4.125l3.75-.313 3.75-.312-.125-1.75-.156-1.75h1.844c1.013 0 2.974.518 4.374 1.156L73 471.312V474c0 1.47.294 2.95.656 3.313l.656.656 1.344-1.094L77 475.75v-3.625c.006-1.995.315-5.313.656-7.375l.594-3.75H85l1.344-3.25 1.375-3.25-.969-1.25-1-1.25 1.156-1.406 1.156-1.375-.28-1.281-.282-1.282 3.125-2.062 3.125-2.094 2.25-3.25 2.25-3.25h5.938l2.968-2.125 2.969-2.094L109.5 428l-.625-3.75 4.438-.656 4.406-.688.969-6.969.937-7-2.063-2.906-2.062-2.937-2.125-.531-2.125-.532-.594-3.031-.594-3h-3.875l-1-2.75c-.547-1.512-1.297-3.538-1.687-4.5l-.719-1.75h3.282l-1.094-2.094c-.614-1.147-.995-2.164-.813-2.281.182-.117 1.639-.788 3.219-1.469l2.875-1.219-1.656-1.812-1.656-1.844.624-1.562.594-1.563-1.062-1.969-1.063-2 1.438-.53 1.406-.563.688-6.031.687-6.032 1.375-1.156 1.406-1.125-1-1.219-1.031-1.219 1.781-1.625 1.781-1.625 2.22.594 2.218.563V351.656l3-.437 2.969-.438.625 1.594.594 1.594 1.968-1.063 1.969-1.062-1.563-2.375-1.562-2.406V341h-1.094c-.602 0-2.438-.937-4.062-2.094l-2.938-2.125.344-1 .344-1.031-2.813-2.969-2.781-3v-6l-1.438.563-1.437.531L107.25 322l-3.844-1.844-1.656-3.344c-.898-1.826-1.831-4.021-2.094-4.906l-.469-1.625-3.093-.625-3.094-.594V305.156l-2.906-.625-2.906-.656-.626-2.438L85.97 299h-2.844l-.625-2c-.35-1.1-.988-2-1.406-2-.419 0-2.824-1.372-5.375-3.063l-4.656-3.093-4.032-4.813L63 279.22 64.5 275c.823-2.333 1.5-4.392 1.5-4.563 0-.17-3.646-3.121-8.094-6.562l-8.093-6.25-1.782-.125c-.98-.072-3.44-1.115-5.468-2.313-2.03-1.197-4.357-2.187-5.188-2.187zM150.688 353.188l-4.282 2.062-4.25 2.063-.625 3.406-.656 3.406 4.063 3.938c2.23 2.165 4.062 4.398 4.062 4.968v1.031l1.938-1.03c1.063-.57 3.024-1.032 4.343-1.032 1.32 0 2.68-.273 3.031-.625l.625-.656-1.687-2.844-1.688-2.875h-2.5l-1-1.875-1-1.844 1.22-3.187 1.187-3.188-1.406-.875zM157.75 354.906l-.531.531-.563.563 1.344 2.5c1.669 3.118 2.394 3.138 3.781.094l1.094-2.407-2.563-.656zM199.5 601.283c-2.75-.83-5.143-1.638-5.317-1.796-.175-.159.827-2.546 2.225-5.305l2.542-5.017.653-4.082.653-4.083h-2.066l-2.503-4.25-2.502-4.25-3.02-1.764-3.021-1.764-.719 2.264c-.395 1.245-.758 2.489-.807 2.764-.048.275-1.218 1.472-2.6 2.66l-2.51 2.16-.68-1.097-.678-1.098 1.925-2.447c1.059-1.346 1.925-2.914 1.925-3.484 0-.57.69-1.8 1.534-2.732l1.534-1.695-3.392-2.978-3.392-2.978 1.426-.906 1.425-.905-.635-1.647-.635-1.646-4.445-.667-4.446-.666-1.843.584-1.843.585 1.517 4.607 1.516 4.606-1.089 1.744-1.089 1.743 1.042 1.042 1.04 1.04-.673 1.09-.673 1.09-1.898-1.015-1.897-1.015-1.092 2.04-1.092 2.041-.873-.54-.873-.54-3.494 2.062-3.494 2.061-.614-1.934-.614-1.935 1.164-2.554 1.163-2.554-1.632-1.632c-.898-.898-1.633-2.05-1.633-2.561V563l-1.25-.006-1.25-.006-.102-5.013c-.056-2.756-.355-5.265-.664-5.574l-.563-.563-2.043 1.094-2.044 1.094-1.077-2.013L142.93 550H140v-3.756l2.143-1.423 2.144-1.423-.735-4.897-.734-4.898-3.409-3.122-3.409-3.123v-8.396l2.51.63 2.51.63 3.49-2.662L148 514.9v-5.828l-2-1.07-2-1.071V501H148.191l2.898-2.063 2.897-2.063 1.051.65 1.05.649 1.457-1.209 1.456-1.209.027 1.373c.015.755 1.297 2.903 2.849 4.775l2.821 3.402 1.008-.622 1.007-.623-.437-5.28c-.241-2.904-.865-6.677-1.387-8.386l-.948-3.106 1.005-2.644 1.006-2.644h5.913l2.068-2.904 2.068-2.904V472.159l2.75-.61 2.75-.612 1.734-4.104 1.734-4.104 1.516 1.258 1.516 1.258V468h3v-8.062l1.69-.649 1.69-.648.393 1.18.394 1.18h4.699l.612-1.93.612-1.93 3.423 1.43c1.883.786 3.64 1.43 3.904 1.43.264 0 1.286-2.554 2.27-5.674l1.788-5.674 3.43-2.024c1.887-1.114 4.262-2.086 5.277-2.16l1.847-.137.8 3.084.801 3.084H231.411l.587-2.49.587-2.49.91 1.473c.5.81.97 2.287 1.044 3.282l.133 1.81-.901.557-.901.557 1.655 1.829 1.655 1.829-.95 1.698-.95 1.698 1.342 2.691 1.343 2.692-.975 3.4-.976 3.4 2.743 2.247c1.509 1.235 3.136 2.262 3.615 2.281l.873.036-1.27 1.53-1.269 1.53 1.129 2.478 1.13 2.478 3.42 1.63 3.42 1.632 1.285 2.611c1.901 3.868 2.438 9.33 1.444 14.723l-.573 3.111 1.52 1.261 1.519 1.261v3l-1.367-1.135-1.368-1.134-1.24 1.494-1.24 1.494-2.074-1.454-2.075-1.453-1.297 1.077-1.297 1.076 1.185 2.145c.652 1.18 1.295 3.654 1.429 5.498l.244 3.352-3.2 2.936-3.2 2.935-2.264-.56-2.265-.561-4.22 3.936-4.218 3.935 1.613 1.837c.887 1.01 2.278 3.187 3.092 4.837l1.479 3 1.763 9.24 1.764 9.24-1.652 2.52-1.651 2.52.962 1.8.963 1.798-.328 2.941-.328 2.941.874 1.645.874 1.645-1.504 1.249-1.504 1.248 1.525 1.685 1.525 1.686v2.921l-.001 2.921H223.5l-1.105-.719-1.104-.719-2.271 2.417-2.271 2.418-2.805.616-2.806.616-1.191 1.436-1.192 1.435-2.127-.104c-1.17-.057-4.378-.783-7.128-1.613zM344.667 393.333c-.367-.366-.667-1.355-.667-2.196v-1.53l-2.636-3.803-2.636-3.804H336v-2l-1.75-.032c-2.084-.038-5.25-2.272-5.25-3.706 0-.56-.658-1.563-1.463-2.231l-1.463-1.214 1.677-2.56 1.678-2.56-2.202-1.462-2.202-1.462 2.097-2.944 2.096-2.944.641.64c.353.353.65 1.167.662 1.808l.022 1.167 2.978-.308 2.979-.307L338 360c.825-1.037 3.204-3.225 5.288-4.863l3.787-2.98-1.945-.617-1.945-.617-.576-1.502-.577-1.501 1.234-2.142c1.583-2.748 5.902-6.706 7.362-6.747.62-.018 1.687-.707 2.372-1.532l1.245-1.5H360.882l.59-.956.592-.956-1.545-3.698-1.545-3.697-.619.618-.618.619-1.896-1.015-1.897-1.015.555-.898.555-.898-5.244-2.51-5.245-2.51-1.783 1.613L341 322.31v-1.573c0-.865-.273-2.285-.607-3.155l-.607-1.582H344v-8H340.063l.537-1.399.536-1.399-.984-.608-.984-.608 3.083-3.083 3.083-3.083 3.247-.527 3.247-.527 2.309 1.617 2.308 1.617h3.598l1.15-2.524 1.15-2.524 2.48-.622 2.479-.623 1.875 1.171 1.875 1.171 5.224-.135 5.224-.135 2.653 1.049c1.459.577 2.948 1.526 3.309 2.11l.656 1.062h3.769l1.306-1.841c.719-1.013 2.29-2.363 3.492-3l2.184-1.16 2.468.94c1.358.515 2.726 1.354 3.04 1.862l.572.925 6.275-.342c3.452-.189 10.776-.519 16.276-.734l10-.392.5.695c.275.382 2.626 1.384 5.225 2.225l4.724 1.531 3.171-1.928 3.17-1.928.605.835c.333.46 1.848 2.743 3.368 5.074l2.762 4.238h2.086l2.114 5.087 2.114 5.087 4.328-.344 4.328-.344.3.9c.308.923-1.826 7.38-4.5 13.614-.824 1.925-1.777 4.287-2.116 5.25l-.616 1.75-1.282-.004c-.704-.002-2.77-.912-4.591-2.022l-3.31-2.018.673-2.125.675-2.124-2.226.582-2.226.582.546-2.733.547-2.732-.685-1.026c-1.08-1.62-4.287-2.544-9.52-2.741l-4.838-.183-.855 1.599-.856 1.599 1.836 1.571c1.01.865 2.783 1.873 3.942 2.24l2.107.67v.873c0 1.312-2.05 2.324-5.455 2.693l-3.045.33-1.5 1.798-1.5 1.799-4.5 1.806c-2.475.993-5.583 2.314-6.908 2.935l-2.407 1.13-.441 1.682c-.543 2.069-.998 2.244-9.948 3.839l-7.204 1.284-.61 2.779-.61 2.779-1.52 1.26-1.52 1.262-1.644-1.037-1.644-1.037-1.809 2.3-1.809 2.299-1.363-.523-1.363-.523-1.177 3.568-1.178 3.569H382v3.779l-1.898 2.344-1.899 2.344-3.635-1.734c-2-.953-4.535-1.733-5.633-1.733h-1.998l-.52 1.357-.521 1.357-2.444-.269-2.443-.268-.564.912-.563.911h-3.844l-.626 2.493-.625 2.493-.856-.529-.855-.528-2.761 4.171-2.76 4.172-.197 2.614a168.736 168.736 0 01-.277 3.364c-.1.93-1.52.979-2.414.083zM323 276.457c-2.475-1.438-5.266-3.304-6.202-4.147l-1.702-1.533-3.53 2.182-3.53 2.182-1.032-.639c-.568-.35-1.923-2.383-3.01-4.515l-1.98-3.878 1.08-.667 1.08-.668-.5-1.916-.502-1.916 3.664.66c2.015.362 4.226 1.105 4.914 1.65l1.25.993 1.274-1.058 1.275-1.057 4.204.564 4.205.564.625 3.335.626 3.335 4.896-2.481 4.895-2.48v-3.834l-2.727-.317-2.728-.316-1.718-4.5-1.718-4.5-.055-5.59-.054-5.589 2.434-1.109 2.434-1.109.316.881.316.881 4.26.39 4.261.391 2.794 2.677L345.61 246l1.946.032 1.945.031 2.75 2.42 2.75 2.421v1.326c0 .729-.695 2.317-1.545 3.53l-1.544 2.205 1.094 2.044 1.094 2.044-1.925 2.723-1.925 2.724-.704 3.25-.704 3.25H346v2.824l-3.75.559c-2.063.307-6.225.813-9.25 1.123l-5.5.565-4.5-2.614zm-40.915 6.146c-.676-.816-2.019-1.622-2.982-1.793l-1.752-.31.834-3.176.834-3.175 3.516-1.16 3.516-1.16 2.724-2.278c1.499-1.253 3.684-2.577 4.857-2.944l2.131-.667.602 1.57.603 1.57-1.225 1.96-1.224 1.96h-3.17l-2.095 2.25-2.094 2.25-.33 2.991-.33 2.992-1.592.301-1.592.302-1.23-1.483zM173.5 173.049c-1.1-.414-2.974-1.087-4.165-1.495l-2.166-.743-.598-2.384-.598-2.383-4.737-4.645-4.736-4.645 2 .568c5.45 1.546 14.055 4.833 14.922 5.7l.978.978h5.6v1.466c0 1.805-3.157 8.572-3.935 8.434-.31-.054-1.465-.438-2.565-.851z"/><path d="M211.25 304.51c-3.783-1.645-3.874-2.044-1.334-5.896l1.902-2.886-.47-2.591c-.258-1.426-.671-2.794-.918-3.04-.247-.247.494-1.452 1.646-2.678l2.094-2.23-1.694-2.586-1.695-2.586-.934.578-.935.577-1.456-1.208-1.456-1.209v1.49L204.5 279l-1.5-1.245-1.396 1.159-1.397 1.159-.414-4.787-.415-4.786 1.388-2.192 1.388-2.192-.327-2.308-.327-2.308-2.25-.32-2.25-.32v-1.006c0-1.292-5.009-6.285-7.092-7.07l-1.592-.6.18-3.842.179-3.842-.873-1.145c-.48-.63-.744-1.717-.587-2.417l.285-1.273-3.5-1.02c-1.925-.563-3.817-1.493-4.205-2.07l-.704-1.046 1.55-.868 1.552-.868 1.057 1.057 1.056 1.056 2.01-1.075 2.01-1.076-2.413-1.824-2.413-1.823 1.217-1.221 1.217-1.221.64 1.667.64 1.667H190.651l2.16-2.299 2.16-2.298-1.411-2.014-1.41-2.013.875-1.416.875-1.416 3.24-1.091 3.24-1.09.383-1.153.385-1.153-2.646-2.646-2.647-2.647-2.677 2.496c-1.473 1.373-3.69 3.016-4.928 3.653L186 217.07V212.245l-1.487-1.234-1.488-1.235-1.52.584-1.522.584-1.077 2.363-1.076 2.362-2.665 1.549-2.665 1.548-3.18-.486-3.18-.486-.683-4.147c-.376-2.28-1.13-4.7-1.675-5.376l-.992-1.229-1.83.979c-1.005.538-2.958.979-4.338.979h-2.509l-1.58 2.25-1.58 2.25H145.5l.344 2 .343 2 3.446 3.17 3.445 3.171-.473 2.33c-.26 1.28-.72 3.809-1.022 5.617l-.548 3.288 1.482.569 1.481.568-2.283 1.796-2.283 1.796-2.793-.534-2.793-.534-2.882 2.132L138.08 243h-2.22c-1.22 0-3.738.55-5.595 1.22l-3.375 1.221-.9-1.456-.9-1.456 1.704-.889c1.965-1.024 4.205-3.625 4.205-4.883v-.861l-2.986-1.04-2.985-1.042 1.075-2.009 1.076-2.01-.487-1.86-.487-1.861 1.338-1.11 1.337-1.11-.58-1.677c-.32-.922-1.279-2.24-2.132-2.927l-1.551-1.25H118.933l-2.097-3.554-2.097-3.554-2.62.304-2.619.304-.046 2.713c-.054 3.186.147 2.956-4.954 5.668-2.2 1.17-5.125 2.988-6.5 4.04l-2.5 1.912-6.731.661-6.732.661 1.523-3.643 1.522-3.644-2.061-3.335-2.062-3.335-1.73.423-1.729.423-4.934-1.796-4.935-1.796-.705-2.638-.706-2.638 1.948-.51 1.947-.509-1.288-2.062-1.288-2.063 1.56-1.56 1.56-1.559 4.42 1.02c2.432.56 5.636 1.03 7.121 1.043l2.7.024.702-6.202.702-6.202 3.694-7.048 3.693-7.048-.236-5.5c-.13-3.025-.009-7.148.269-9.163l.504-3.663 1.886-.493 1.886-.494v-4.069l1.184-.731 1.183-.732-1.933-.757c-1.064-.417-3.846-.79-6.184-.828L88 146l.056-3.75.057-3.75 1.193-3.5 1.194-3.5h1.167c.641 0 1.493-.327 1.892-.726l.726-.726-1.295-1.56-1.295-1.56 2.903-3.05c1.596-1.678 3.802-3.57 4.902-4.206l2-1.157 8.5-.04 8.5-.041 2.562-.778 2.561-.778 1.189 2.608 1.188 2.608V131h3c1.65 0 3 .257 3 .572 0 .315-1.078 2.452-2.396 4.75-1.318 2.298-2.732 5.303-3.143 6.678l-.746 2.5-4.094 5.25c-2.252 2.888-4.438 5.25-4.858 5.25H116v6.343l-1.564 1.728-1.565 1.729 3.409 2.6 3.409 2.6H123v7.864L120 181l-3 2.136V187h4v.784c0 .432-1.381 1.6-3.07 2.598l-3.07 1.813.57 1.484c.314.817.57 1.898.57 2.403V197h2.566c1.41 0 3.502-.501 4.646-1.114l2.081-1.113.907 1.62.907 1.62 1.732-.927 1.732-.927 2.244 3.277 2.245 3.276-1.03 2.71-1.03 2.709 1.035 1.934L135.07 212h9.556l2.726-2.845 2.726-2.846-1.54-1.277-1.538-1.277.021-2.627.022-2.628 4.083-2.89 4.083-2.89-.67-7.144-.67-7.144 4.48-3.216 4.478-3.216h6.773l.95.87c.522.48 2.189 1.164 3.703 1.52l2.754.65 2.144-4.414 2.144-4.414-.616-1.606-.616-1.606h-5.945l-.546-.884c-.3-.486-4.152-2.139-8.56-3.673l-8.012-2.79V141h2.109l-.358-6.75-.357-6.75-1.197-2.184c-1.718-3.136-1.505-5.377 1.23-12.912l2.428-6.687 1.427-1.427 1.427-1.427 3.068 3.068 3.07 3.069h9.986l.352-1.056.352-1.056 6.791 1.085 6.791 1.084 1.88 1.175 1.88 1.174 1.745 3.87 1.745 3.87 1.667 1.177c.916.647 2.401 2.604 3.3 4.348l1.634 3.171 3.05 2.173 3.051 2.172 1.437-.552 1.438-.551 1.617 3.408 1.618 3.408 3.202 2.443 3.202 2.442 3.557-1.223 3.558-1.223 2.26 1.83 2.262 1.831h4.378l.955-.955.955-.955 6.786 3.415 6.786 3.415 2.63-1.198 2.63-1.198.365 1.096c.2.603.928 1.866 1.616 2.807l1.25 1.71 4.017-1.384 4.017-1.384 1.223.408 1.223.407 1.876 3.658c2.15 4.194 5.39 7.246 9.727 9.166l3.018 1.336.913 2.078.913 2.078 3 .264c1.65.145 4.519.514 6.374.819l3.375.554-2.125 1.488-2.124 1.488-.002 1.694-.002 1.693-4.353 2.75-4.353 2.75h-1.586c-.873 0-1.826-.387-2.118-.86l-.532-.86-4.763-.654-4.763-.652-1.671 2.216-1.672 2.215-4.343 1.05-4.342 1.048.095 3.537.095 3.537 3.776 4.962c2.077 2.728 4.059 5.186 4.405 5.461.676.538 1.252 6 .632 6-.205 0-1.599-.466-3.097-1.035l-2.723-1.036-2.842 2.723-2.841 2.722v3.689l1.372.526c.754.29 2.833 2.562 4.62 5.05l3.247 4.521-.918.919-.918.918-3.85-3.943-3.85-3.943-3.602 1.823c-1.98 1.002-4.96 2.115-6.62 2.472l-3.017.65-1.787-3.025-1.787-3.026-2.996 1.55-2.996 1.549.503 1.698c.277.934.788 2.894 1.136 4.355l.633 2.657-1.084 2.025-1.084 2.026-2.001.635-2.001.635v9.555l-2.038 1.844-2.038 1.845.653 3.06c.36 1.684 1.073 3.583 1.587 4.222l.933 1.16-.94.581-.939.58-1.636-2.496-1.636-2.497-2.392 1.567-2.392 1.568-3.963-2.022-3.962-2.022-1.608 1.777-1.607 1.776 3.373 3.684L222.77 264h3.017l.575 1.5.576 1.5H231v-2h3.568l1.77 2.997 1.771 2.998 2.94-1.52 2.94-1.52-1.22-1.953-1.22-1.952.976-.91.975-.91 7.75 1.534 7.75 1.534v1.65c0 .909-.443 2.094-.983 2.634s-1.593 3.014-2.34 5.497l-1.36 4.514 1.464 2.204 1.462 2.203h3.157l-1.19 1.19-1.19 1.19-3.544-1.69c-1.95-.93-3.717-1.69-3.928-1.69-.212 0-1.329 1.527-2.482 3.394l-2.098 3.393-3.234 1.68c-1.779.923-4.359 2.315-5.734 3.091-1.375.777-3.218 1.42-4.095 1.427l-1.595.015-1.817 2.008-1.818 2.008-1.86-1.684-1.862-1.685-1.177 1.177c-.647.647-1.916 1.176-2.821 1.176h-1.645l-1.72 1.9-1.72 1.901 1.065.659c.586.362 1.065 1.081 1.065 1.599V306l-1.25-.04c-.688-.02-2.712-.674-4.5-1.45zM79 123.058V122h1c.55 0 1 .198 1 .441s-.45.72-1 1.059l-1 .618v-1.059zm1-3.154V119h4.667c5.586 0 5.414.523-.417 1.267l-4.25.543v-.905zM93 117l1.5-.97 3.309-.015 3.309-.015-.618 1-.618 1-4.191-.015-4.191-.016L93 117zm10.27-.604l.605-.604 1.313.525 1.312.525-1.917.079-1.916.079.604-.604zm5.73-.628c0-.457.7-1.1 1.555-1.428l1.555-.596 2.195.985 2.195.984-3.75.443-3.75.442v-.83zm9.5-1.768l.618-1 3.191.07 3.191.07-2 .86c-1.1.473-2.814.891-3.809.93l-1.809.07.618-1zM237 627.614c0-.212.672-1.674 1.494-3.25.821-1.575 1.496-3.447 1.5-4.16l.006-1.295-3.361.63-3.361.631-.545-2.084-.545-2.084.907-.56.908-.562-1.752-2.409c-.963-1.324-2.148-2.422-2.634-2.44-.485-.017-1.61-.843-2.5-1.835l-1.617-1.804-2.5.036-2.5.035-.987-2.231c-1.28-2.894-2.288-2.82-3.695.268l-1.14 2.5h-3.433L210 605.5l-1.245-1.5 1.191-1.436 1.192-1.436 2.805-.616 2.806-.616 2.288-2.435 2.288-2.436 1.087.9 1.088.9 6-.262 6-.262.32-3.244.32-3.244-1.595-1.763-1.596-1.763 1.505-1.249 1.504-1.248-.874-1.645-.874-1.645.328-2.941.328-2.941-.963-1.799-.963-1.799 1.652-2.52 1.652-2.521-1.764-9.24-1.763-9.24-1.48-3c-.813-1.65-2.205-3.827-3.094-4.839l-1.615-1.84 3.74-3.428 3.741-3.428 2.259.567 2.258.567 3.7-3.3 3.7-3.298-.257-3.5-.257-3.5-1.17-2.119-1.172-2.118.635-.635.635-.635 2.238 1.466 2.238 1.467 1.225-1.475 1.224-1.476 1.356 1.125 1.355 1.125.633-1.65.633-1.65-1.622-1.793-1.623-1.793.852-4.56.852-4.562-.905-1.616-.904-1.617.565-.915.566-.916-2.132-3.613-2.132-3.614-3.283-1.372-3.283-1.371-.68-2.14-.678-2.139 1.147-1.382 1.147-1.383-1.815-1.052c-.998-.58-2.59-1.665-3.54-2.412l-1.725-1.36.958-3.34.958-3.34-1.343-2.69-1.343-2.693.95-1.698.95-1.698-1.654-1.829-1.655-1.829.9-.556.902-.557-.144-1.96c-.08-1.077-.732-2.666-1.45-3.53l-1.305-1.573-.886.548c-.488.301-.887 1.353-.887 2.337v1.789l-2.814.08-2.813.08-.937-3.178-.936-3.178-1.75.294-1.75.294v-1.344c0-.74.512-1.856 1.139-2.483l1.139-1.139-2.171-4.618-2.171-4.618-2.218.67c-1.22.367-2.646 1.068-3.168 1.556-.523.489-1.366.888-1.875.888h-.925l.608-3.038.607-3.038-1.495-.574-1.495-.574-1.271 1.055-1.271 1.055-1.42-.878-1.419-.877-3.047.521c-1.676.287-3.677.719-4.447.96l-1.4.44 2.034 2.224 2.034 2.224-.634 1.5-.634 1.5-1.25.1c-.687.055-1.9.167-2.695.25l-1.446.15-1.318 2.75-1.318 2.75-3.239.1-3.238.1-1.047-1.261-1.046-1.26 1.048-.649 1.049-.648v-5.764l1.004-.62 1.003-.62-.632-2.69c-.347-1.478-1.403-4.038-2.345-5.688l-1.712-3-.204-3.952-.204-3.951-.86-1.049c-.472-.576-.993-2.398-1.157-4.048l-.299-3 .953-1.604.953-1.604 2.774-.512 2.774-.512.575.931.576.931 1.861-1.684 1.861-1.685 4.451.668 4.45.667.558 1.452.557 1.452h5.126l.601-1.567.602-1.567-1.133-1.133L203 396.6V390H211.187l.523-2 .523-2h.858c.472 0 1.544-1.328 2.383-2.95L217 380.1v-5.124l3.808.61 3.808.608 3.138-2.64 3.14-2.642.67-2.206c.37-1.213 1.296-2.918 2.058-3.789l1.385-1.582 1.796.132 1.796.132 2.2 2.2L243 368h3v3.822l2.805 2.36c1.543 1.3 3.09 3.104 3.44 4.012l.633 1.65 2.209.328 2.209.328.792 1.5c.436.825 1.05 2.725 1.364 4.221l.572 2.721 2 1.07 2 1.071 3.584-2.733 3.585-2.734-2.597-1.892-2.596-1.89v-2.764l1.934-1.035L269.87 377h6.731l.985.985.985.985 3.465.447c1.906.247 3.855.478 4.332.516l.866.067-.513 1.963-.514 1.963 1.147.85c.631.466 2.047.82 3.147.786l2-.062.527-3.5.527-3.5-.7-4-.7-4 2.673-2.229 2.673-2.228 1.5.247 1.5.247v4.287l2.424 2.588L305.35 376H315.882l.668-1.081.668-1.081 2.487.624 2.486.624 1.36-1.129 1.361-1.13 1.106.684c.608.376 1.525 1.786 2.037 3.135l.932 2.45 3.438 1.437c1.891.79 3.745 1.933 4.12 2.539l.68 1.102-.987.988-.988.988 2.875 3.148 2.875 3.148v4.508l4.866 3.846c2.677 2.116 6.27 4.428 7.987 5.14l3.122 1.292-.594.96-.594.961 2.082 1.94 2.082 1.94-1.972 3.233c-1.084 1.779-1.973 3.967-1.975 4.862l-.004 1.628-2.142 1.422-2.142 1.423 1.177 2.2L354.07 430h2.763l3.161 6.49c1.74 3.568 3.542 6.723 4.007 7.01.465.288 1.144 1.883 1.509 3.545l.664 3.023 2.374 1.555 2.374 1.556.643 2.028.644 2.028 4.145-.556 4.146-.556 5.255 5.512c2.89 3.032 6.432 7.055 7.869 8.939l2.613 3.426H400.626l2.566 2.75 2.566 2.75.664 3.738.664 3.738 1.957 1.047L411 489.07V487l1.75.032c2.08.038 4.333 1.766 5.852 4.491l1.102 1.977 2.148.32 2.148.32v2.923l1.41.54 1.41.542.724 2.677c.399 1.473.874 4.928 1.055 7.678l.33 5-1.042 3.25-1.042 3.25h-1.628l-.62 2.465-.618 2.464-1.74-.616c-.956-.34-2.414-1.16-3.24-1.824-.824-.664-2.435-1.433-3.578-1.71l-2.08-.502-1.508 1.111-1.508 1.112-.088 1.5c-.049.825-.276 3.935-.505 6.911l-.416 5.411-3.644 3.34L402.03 543l-2.265.015c-1.245.008-3.958.605-6.028 1.326l-3.763 1.31-2.791 2.675c-1.535 1.47-3.336 2.674-4 2.674h-1.21l-2.957 3.25c-1.626 1.788-2.97 3.626-2.986 4.087-.041 1.181 6.155 9.925 8.036 11.34.861.648 2.412 3.055 3.447 5.35l1.882 4.173-2.755 4.9-2.754 4.9.807.101c.445.056 2.226.025 3.958-.068l3.15-.169 1.13 3.424 1.13 3.424-1.03 2.71c-.566 1.49-1.03 3.833-1.03 5.209 0 1.375-.458 3.357-1.018 4.403l-1.018 1.903-2.64-1.004c-1.453-.552-4.257-2.426-6.232-4.165l-3.592-3.16-.065-2.054c-.036-1.13-.623-3.082-1.304-4.34l-1.24-2.284-3.695.676-3.696.676-.8 1.359-.8 1.359H361.339l-1.256-2.347-1.256-2.347-5.467.304-5.466.303.686-2.207.687-2.206-2.07 1.849-2.072 1.848.938 2.467c.516 1.356.938 3.112.938 3.9V600l-7.25-.176c-3.988-.097-10.85.189-15.25.635l-8 .81-1.25.989-1.25.988v3.541l-1.582.607c-.87.334-2.868.607-4.44.607h-2.86l-.645 1.044-.645 1.044 1.208 1.456 1.209 1.456h-7.012l-.523 2-.523 2H295v-2.723l-2.515.481c-1.383.264-2.76.877-3.059 1.361l-.544.881H281v-4h-2v-3h-4v-2h2.333l-.75-.75-.75-.75-4.592-.028-4.593-.029-.407-1.221-.408-1.222h-4.715l-.618 1-.618 1h-5.069l-.523-2-.523-2H251.866l.51 1.75c.28.963.785 3.775 1.12 6.25l.611 4.5-2.803 3.344a224.077 224.077 0 01-5.954 6.75L242.2 628h-2.6c-1.43 0-2.6-.174-2.6-.386zM127.15 487.51l-5.349-2.51H116.4l-1.158-1.158-1.157-1.157-1.366 1.134-1.367 1.133-1.176-1.176L109 482.6v2.4H105.937l-.575-1.5-.576-1.5h-3.935l-1.675-3.99-1.676-3.99-1.5-.128c-2.747-.236-4.22.235-6.038 1.929L88.16 477.5l-3.33-.173c-1.832-.095-3.443-.264-3.58-.375-.138-.111-.813-.258-1.5-.327l-1.25-.125-.335-2.941c-.184-1.618-.044-4.88.311-7.25l.647-4.309h6.574l1.537-3.914 1.538-3.914-1.044-1.044-1.043-1.043 1.243-1.499 1.244-1.498-.644-1.043-.645-1.043 3.308-1.97 3.309-1.97 2-3.028 2-3.028 2.906-.003 2.905-.003 3.434-2.619 3.433-2.619-.61-3.252-.61-3.252 3.146-.629c1.73-.346 3.704-.629 4.385-.629h1.239l2.802 4.043 2.802 4.044 1.084-.448c.596-.246 1.872-.763 2.834-1.15l1.75-.703v4.028l5.015 4.198 5.014 4.199 2.318-1.519 2.317-1.518.918.663.918.663.304 6 .304 6 1.446 1.11 1.446 1.11v1.675c0 .922-.714 2.765-1.586 4.096l-1.586 2.421.684 1.107.684 1.107-1.348 1.687c-2.419 3.027-3.847 6.116-3.894 8.423l-.047 2.264-3.222 6-3.223 6-1.981.26-1.981.26-5.35-2.51z"/><path d="M134.468 351.948l-.67-1.084-1.324.507-1.323.508-1.576-2.404L128 347.07v-5.874l-3.75-1.95-3.75-1.948-.014-1.55-.014-1.548-2.678-2.679-2.679-2.679-.308-3.17-.307-3.172-2-.077c-1.1-.042-3.373-.617-5.051-1.278l-3.051-1.202-1.7-2.876-1.698-2.876v-4.134l-3.25-.837-3.25-.838-.305-2.077-.304-2.077-2.919-.584-2.919-.583-.635-2.53-.635-2.531h-1.027c-.565 0-2.027-1.012-3.25-2.25-1.224-1.238-4.135-3.375-6.469-4.75l-4.244-2.5-3.893-4.634-3.893-4.635 1.49-4.222 1.49-4.222-.531-.859c-.292-.472-4.114-3.63-8.494-7.018-4.379-3.388-7.962-6.54-7.962-7.004v-.843l1.422.545 1.422.546 2.06-1.102 2.06-1.103 5.179-.363 5.18-.363 1.815-2.361 1.815-2.362-.278-1c-.153-.55-1.708-1.675-3.455-2.5-3.74-1.766-3.88-2.34-1.22-5l2-2h3.954l1.638-2.5 1.638-2.5H78v-.929c0-.51.668-1.596 1.485-2.413l1.484-1.484 7.766-.72 7.765-.718 3.184-2.78 3.184-2.779 3.566-1.29 3.566-1.289.158-1.549c.088-.852.093-2.337.012-3.299l-.146-1.75 2.238.038 2.238.039 2.013 3.2 2.014 3.2 1.986.3c1.093.166 2.946.503 4.118.751l2.13.45.516 1.974.517 1.974L126.5 225l-1.294 1.074.487 1.86.487 1.862-1.158 2.163-1.158 2.163 3.068 1.158c4.167 1.573 3.993 2.432-1.216 6.016l-1.785 1.228 1.442 1.972 1.443 1.972 3.413-1.234c1.877-.679 4.412-1.234 5.632-1.234h2.22l2.892-2.138 2.893-2.139 2.817.556 2.817.556 2.956-2.37 2.957-2.37-1.663-.638-1.664-.638.523-3.16c.287-1.737.737-4.213.999-5.501l.476-2.342-3.342-3.158c-1.838-1.737-3.662-3.996-4.054-5.02l-.71-1.86 2.48.622 2.481.623 1.577-2.408 1.578-2.407 3.203-.444c1.762-.244 3.835-.628 4.607-.854l1.404-.41 1.096 4.96 1.096 4.959 3.5.716 3.5.717 3.078-1.902 3.079-1.9 1.182-2.597 1.183-2.595 1.739.329 1.739.33.313 3.24.314 3.24-3.235 2.955-3.235 2.954-.738-.456c-.406-.251-1.454-.182-2.329.154l-1.59.61v2.716l2.23 1.193c2.581 1.382 4.77 3.421 4.77 4.445 0 1.184-3.383 3.366-5.271 3.4l-1.772.032-1.139 2.5-1.139 2.5h-6.33l-2.094 2.25-2.093 2.25-.647 3.51-.648 3.51 1.078 2.836c.593 1.56 2.664 4.77 4.601 7.135l3.523 4.3 3.668.688 3.668.688 1.316-1.834a74.781 74.781 0 012.921-3.738l1.605-1.906.926 1.656.926 1.655h10.964l.518-1.352.52-1.351 2.45.468 2.449.468v4.385l-1.358 1.857-1.359 1.858.483 4.287.484 4.287-.789 1.797c-.433.988-.86 2.021-.946 2.296-.087.275-.757 1.731-1.49 3.236l-1.333 2.736-2.346 1.537-2.346 1.537v3.168l-1.582-.607c-.87-.334-1.995-.607-2.5-.607H185v-2.93l-1.934-1.035c-2.7-1.445-3.428-1.324-6.476 1.073l-2.679 2.107 1.624 2.48 1.625 2.479-.53.53c-.291.29-3.14.73-6.33.975l-5.8.446-3.49 3.444-3.49 3.445 1.147 1.743c1.183 1.797 1.616 1.865 4.57.715l1.735-.675 1.095 2.851 1.095 2.852-1.739 3.25-1.738 3.25h-7.44l-1.234 1.487-1.234 1.487.553 2.263.552 2.263-1.44 1.941c-.793 1.068-1.442 2.507-1.442 3.199 0 .691-1.137 2.483-2.526 3.983l-2.526 2.725-1.12-1.12-1.121-1.121-4.43 3.63-4.43 3.63.607 3.238.607 3.239-.961.594-.962.595-.67-1.085z"/><path d="M168 455.79c0-.167.401-1.702.892-3.413l.892-3.11-.84-1.357-.839-1.358-2.188-.026-2.188-.026-.865-1.5c-.476-.825-1.31-2.756-1.855-4.29l-.99-2.79-2.04 1.091-2.039 1.091.28 2.7.28 2.698h-1.152c-.633 0-2.726-1.432-4.65-3.183-1.924-1.75-4.105-3.308-4.848-3.46l-1.35-.277-2.273 1.258-2.274 1.258-4.476-3.669L131 433.76v-4.992l-1.75.503c-.962.277-2.425.772-3.25 1.101l-1.5.598-2.879-4.073-2.878-4.074.943-6.968.943-6.968-2.349-3.184-2.348-3.183-1.872-.692-1.872-.693-.673-3.067-.674-3.067h-3.835l-1.34-3.25-1.341-3.25 1.337-.323c1.563-.378 1.656-1.126.39-3.128l-.919-1.452 3.023-1.838 3.023-1.838-1.294-1.56-1.294-1.56-.2-3.9-.201-3.9H109.84l.693-6.473.693-6.471 1.399-1.161 1.399-1.161L113 352.5l-1.025-1.235 1.386-1.15 1.386-1.15 1.635.628 1.635.628.632 2.515.63 2.515.91-1.625.91-1.626H124.786l.592 1.543.592 1.543 2.265-1.245c1.246-.685 2.929-1.354 3.74-1.487l1.475-.243.699 1.13.699 1.13 1.595-1.324 1.596-1.324-.59-3.138-.588-3.139 3.933-3.16 3.932-3.16 1.12 1.12 1.12 1.12 2.99-2.933 2.988-2.933.028-1.316c.016-.723.58-2.298 1.254-3.5l1.225-2.184.025-3 .024-3 2.698-.311 2.699-.312 2.019 3.958 2.02 3.959-3.03 2.353-3.03 2.353-.188 5-.188 5 .792 2.17.792 2.169-1.844.585-1.844.585-.105 3.721-.106 3.721 1.783 2.525 1.783 2.524-.843 2.25c-1.694 4.519.051 2.09 2.635-3.666l2.655-5.917 2.447-.614 2.447-.614.916.566.916.566 4.24-4.114c2.331-2.263 5.502-4.767 7.046-5.566l2.808-1.452 1.925 1.03c1.06.567 3.064 1.031 4.456 1.031h2.53l1.118 2.088 1.117 2.088 2.229-.56 2.229-.56 3.56.984 3.56.983.618 3.738c.34 2.057.623 4.31.629 5.01l.01 1.27-4.096-2.09c-2.253-1.15-4.299-1.889-4.545-1.642-.246.246.064 2.48.689 4.963l1.137 4.516-1.045 1.953-1.045 1.953.938.938.938.938-2.235 3.198c-2.592 3.709-3.371 3.954-4.206 1.324l-.605-1.907-1.435-.55-1.434-.551-1.23 4.104-1.23 4.105-1.825.477-1.826.478.558 1.758.558 1.757-1.53.587-1.53.587V391h-8.69l-1.749-1.933-1.749-1.932-1.406.54-1.406.539v4.836l-2.581.98-2.582.982.581 1.244c.32.684.855 2.02 1.19 2.967l.611 1.723 4.64 1.305 4.64 1.305.34 2.972c.186 1.635.728 3.444 1.205 4.02l.866 1.049.204 3.951.204 3.952 1.712 3c.942 1.65 1.997 4.21 2.345 5.689l.632 2.688-1.003.62-1.004.621v5.482l-1.042 1.042-1.043 1.043 1.53 1.27 1.53 1.27-2.163 3.137c-1.19 1.726-2.3 3.315-2.464 3.53-.165.216-.954-.15-1.754-.814l-1.455-1.207-.934 1.814c-.514.998-.786 2.265-.604 2.815l.331 1-2.466 1.797c-1.356.988-2.466 1.66-2.466 1.493zM155.234 373h2.366l1.118-1.118 1.118-1.118-1.668-3.357-1.668-3.358-1.643-.024-1.643-.025-.548-1.427-.547-1.427 1.19-3.154 1.19-3.154-1.876-1.372-1.876-1.371-4.754 2.409-4.754 2.409-.71 3.786-.71 3.786 2.94 2.508c1.618 1.379 3.73 3.736 4.693 5.237l1.752 2.731 1.832-.98c1.008-.54 2.897-.981 4.198-.981z" fill="#333"/><path d="M261.571 388.429L260 386.857V382.31l-1.829-1.655-1.828-1.655H253v-2.624l-3-2.218-3-2.218v-3.989l-2.689-1.023-2.689-1.022-1.253-1.79-1.254-1.79-2.037.15c-1.12.082-2.346.46-2.724.837-.378.378-1.062.687-1.52.687H232v-3.882l1.065-.658 1.065-.659-1.72-1.9-1.72-1.901h-3.753l-.575 1.5-.576 1.5h-2.856l1.25-2.25c.687-1.238 1.265-2.55 1.285-2.917.02-.366.364-.996.767-1.398l.732-.732-.562-2.237-.562-2.238 1.652-1.364c.908-.75 2.55-2.182 3.647-3.18l1.995-1.818-1.22-1.47-1.22-1.47-1.694.287-1.693.287-.404-.986-.403-.987 2-.322c1.1-.177 2.638-.536 3.417-.796l1.417-.475-1.167-1.167c-.642-.642-1.167-1.527-1.167-1.967v-.8h7.882l.645-1.044.645-1.044-1.236-1.49-1.237-1.49-.236-2.997-.235-2.998 1.762.56 1.762.56.547-2.09.546-2.09-3.172-1.854c-1.745-1.019-4.838-3.128-6.873-4.688l-3.7-2.835-.872-2.465-.871-2.464 2.571-2.156 2.572-2.156 3.18-.694 3.182-.694 1.191-1.435c.656-.79 1.764-1.436 2.464-1.436h1.271l2.927-2.75c1.61-1.512 3.39-3.584 3.954-4.604l1.027-1.854 3.242 1.676 3.243 1.677 1.66-.726c1.539-.673 2.216-.863 4.531-1.267l.873-.152-1.205-1.452-1.206-1.452 1.833-2.517 1.833-2.516 1.667-.032 1.666-.03 1.943 2.666 1.943 2.668 3.837-.145 3.837-.144 1.732 1.567 1.732 1.567 2.071-.657 2.072-.658v-6.555l1.829-1.655 1.828-1.655h3.113l1.645-2.51 1.644-2.51-1.09-2.038-1.09-2.038-2.19.663c-1.204.365-3.095 1.49-4.203 2.5-1.774 1.619-8.475 4.933-9.974 4.933-.304 0 .357-1.782 1.468-3.96 1.11-2.178 2.02-4.153 2.02-4.389 0-.236-1.53-.715-3.4-1.066l-3.399-.638-1.192-1.436-1.192-1.437-2.409 1.578L269 263.23v6.706l-2.699 1.414-2.699 1.414-1.8-2.29-1.802-2.29v-5.94l1.382-1.146 1.382-1.147-.232-2.942-.231-2.942-1.064-1.283-1.064-1.284 1.875-2.313 1.874-2.312h6.736c3.704 0 7.119-.237 7.587-.527l.852-.526-1.09-1.313-1.09-1.314 3.119-2.22 3.119-2.222-.581-2.315-.581-2.315.968-.599.968-.598-2.098-4.026-2.098-4.025 2.167-1.517 2.166-1.518-2.54-1.998c-1.396-1.098-3.043-2.94-3.659-4.09l-1.12-2.094 1.704-1.246 1.704-1.246-1.687-2.575-1.688-2.576.569-1.48.568-1.482-1.209-.777c-.664-.427-2.7-2.7-4.525-5.05l-3.317-4.275-.559-3.444-.558-3.443 4.157-.665 4.158-.665 1.859-2.363 1.858-2.363 4.637.636 4.637.635.531.86c.293.474 1.328.861 2.302.861h1.77l4.67-3.094 4.672-3.094v-3.741l1.91-1.023 1.91-1.022 5.515 2.737 5.514 2.737-.175 1.396-.174 1.397 4.25 1.437 4.25 1.437V189.906l1.171 2.57 1.172 2.572 2.255.566 2.255.566 1.711 1.891 1.712 1.891-1 1.27c-.55.697-1.269 2.397-1.596 3.776l-.597 2.509.858 1.387.857 1.387 1.64-.63 1.641-.629 1.982 1.234 1.983 1.234-.67 4.475c-.368 2.462-.746 5.162-.84 6-.093.839-.719 2.836-1.39 4.438l-1.218 2.913.92.92.919.919-1.474 2.954-1.474 2.955 1.213 1.462 1.214 1.463-3.372-.632c-1.855-.347-3.776-.999-4.27-1.448l-.9-.817-2.85 1.475L325 240.05v10.874l2.072 5.537 2.072 5.538H334v2.63l-3.655 1.743-3.655 1.743-.83-1.308c-.456-.72-.836-2.037-.845-2.928l-.015-1.62-4.75-.539-4.75-.539-1.25 1.032-1.25 1.03-1.25-1.008c-.688-.556-3.182-1.329-5.543-1.718l-4.293-.708.624 2.486.624 2.486-1.049.648-1.049.648 2.15 4.424 2.148 4.423 1.432.55 1.431.549 3.366-2.08 3.365-2.08 3.272 2.45c1.8 1.347 4.77 3.208 6.6 4.134l3.33 1.685 8.67-1.064c4.77-.585 9.01-1.065 9.422-1.066.413-.002.75-.678.75-1.503V275h2.777l.698-3.716.697-3.716 1.963-2.758 1.964-2.757-1.094-2.044-1.094-2.044 1.545-2.205 1.544-2.205V249.214l1.454-.558 1.455-.558 5.795 2.827c3.188 1.555 7.985 3.88 10.66 5.167l4.865 2.34.492 1.284.493 1.284h6.541l1.264 1.523 1.263 1.522 1.721-.546 1.721-.546 4.66 1.997 4.658 1.997.606 1.577.605 1.578-2.31 2.458-2.31 2.459-1.742-.554-1.743-.553-.985 1.762-.986 1.761 3.005 3.795 3.005 3.794 5.657-.068c3.11-.038 6.926-.028 8.478.022l2.822.091-.694 3.216-.693 3.215-1.528.883-1.527.883 2.399 1.85 2.399 1.85-6.325-.2-6.324-.199-.523-.845c-.287-.465-1.629-1.266-2.981-1.78l-2.46-.935-2.822 1.46-2.823 1.46-.59 1.536-.59 1.537h-3.944l-.656-1.062c-.361-.584-1.85-1.533-3.31-2.11l-2.652-1.05-5.224.136-5.224.135-1.875-1.17-1.875-1.172-2.685.674-2.685.674-1.127 2.473L359.68 299h-1.617c-.89 0-2.656-.728-3.925-1.617l-2.309-1.617-3.379.549-3.378.548-3.52 3.52-3.52 3.519 1.026.633 1.024.633-.608 1.916-.608 1.916H343v6H338.841l.697 3.25c.384 1.788.914 3.617 1.179 4.065l.482.815 1.687-1.527 1.687-1.527 4.964 2.43c2.73 1.338 4.513 2.46 3.963 2.496l-1 .065 2.354 1.96 2.354 1.962.858-.53.858-.53.859 3.285.858 3.286-3.244.306-3.245.306-1.198 1.444c-.66.794-1.641 1.444-2.182 1.444-1.576 0-7.046 4.975-8.455 7.69l-1.291 2.49 1.022 1.91 1.022 1.91h2.386l-4.804 4.41-4.804 4.411-2.508.63-2.508.63.573-.928.573-.926-1.387-1.151-1.387-1.152-2.604 3.288-2.604 3.288 2.12 1.756 2.12 1.755-1.368 1.745c-.753.96-2.043 2.298-2.868 2.976l-1.5 1.232-2.655-.54-2.655-.541-.654 1.058-.654 1.059H305.31l-1.905-2.113-1.905-2.112v-4.045l-1.61-1.022-1.612-1.022-3.63 2.769-3.63 2.769.46 2.138c.601 2.796.778 5.402.637 9.382l-.115 3.243-2.25-.351-2.25-.352.298-2.053.298-2.054-1.081-.668c-.595-.367-2.75-.875-4.787-1.128l-3.706-.46-.961-.96-.961-.961H269.445l-2.222 1.557-2.223 1.556v2.741l2.446 1.925 2.447 1.924-2.906 2.149c-3.472 2.567-3.43 2.562-5.416.577zm.429-35.307v-1.877l-1.402-1.164c-.77-.64-1.66-2.192-1.976-3.45l-.574-2.288-2.524-1.15-2.524-1.15-2.5 1.139-2.5 1.139v6.81l1.035 1.935L250.07 355H262v-1.878zm36-135.554v-2.432l-2.89-2.057-2.889-2.058-2.67 3.5-2.669 3.5 2.31.926c1.269.51 3.77.955 5.558.99L298 220v-2.432z"/></g></svg>